<svg width="177" height="129" viewBox="0 0 177 129" fill="none" xmlns="http://www.w3.org/2000/svg">
<path d="M49.177 124.652C46.0892 121.721 44.9768 120.358 44.9768 119.506C44.9768 118.629 46.67 116.694 51.9604 111.525L58.9441 104.702L62.9685 104.969C65.182 105.117 68.5081 105.357 70.3599 105.504L73.7269 105.77L64.3144 114.55C59.1375 119.379 54.6008 123.493 54.2328 123.693C53.7847 123.937 52.537 123.303 50.4539 121.773C48.7435 120.517 47.3441 119.672 47.3441 119.894C47.3441 120.116 48.6506 121.565 50.2475 123.115C52.1439 124.954 53.4656 125.883 54.0581 125.792C54.5571 125.716 59.6074 121.142 65.2811 115.629C74.8838 106.298 75.7018 105.615 77.1137 105.754C78.5954 105.9 78.3593 106.166 66.8716 117.271C60.079 123.838 54.7463 128.639 54.245 128.639C53.7677 128.639 51.4871 126.845 49.177 124.652ZM121.915 128.188C121.394 127.972 115.856 122.818 109.609 116.735C98.625 106.04 98.3021 105.674 99.8481 105.674C101.301 105.674 102.4 106.6 111.853 115.779C117.576 121.336 122.512 125.883 122.822 125.883C124.147 125.883 129.727 120.912 129.727 119.732C129.727 119.599 128.328 120.517 126.618 121.773C124.623 123.237 123.28 123.931 122.872 123.707C122.181 123.327 117.45 119.007 108.853 110.908L103.366 105.738L106.722 105.487C108.568 105.349 111.89 105.113 114.103 104.964L118.127 104.693L125.111 111.558C130.266 116.625 132.095 118.716 132.095 119.544C132.095 120.348 130.909 121.79 127.894 124.652C125.584 126.845 123.507 128.626 123.278 128.61C123.049 128.594 122.436 128.404 121.915 128.188ZM70.3073 102.177C52.1527 101.101 42.5483 99.3893 39.5514 96.6949C38.3253 95.5926 38.2541 95.3235 38.4397 92.4959C38.6093 89.9116 38.8224 89.3209 39.9135 88.4104C41.0983 87.4218 41.189 87.088 41.189 83.7182C41.189 78.9215 41.7781 77.3932 44.0628 76.2626C47.3052 74.6579 57.0903 72.8653 67.5455 71.9606L70.4654 71.7079L71.881 74.5675C72.6595 76.1403 74.0505 78.1764 74.9719 79.0922L76.6473 80.7573L72.2936 81.0792C62.8309 81.7789 54.161 83.1777 47.6539 85.0544C44.0176 86.1032 43.6936 86.7627 47.2002 85.9779C51.0001 85.1276 59.8986 84.1573 68.8869 83.6134C80.5708 82.9062 79.8526 83.2057 76.9167 80.2652C73.5699 76.9133 72.293 73.6159 72.5271 68.9301C72.8336 62.7978 76.126 57.9452 81.7231 55.3765C88.96 52.0554 97.4419 54.4529 102.05 61.122C103.885 63.7777 103.855 62.8099 101.994 59.2848C101.363 58.0897 100.559 55.1351 100.087 52.2793C99.6376 49.563 99.2149 47.3943 99.1474 47.4598C99.0797 47.5254 98.9646 49.2828 98.8914 51.3651C98.7666 54.9165 98.469 55.7915 97.7628 54.6831C97.2178 53.8276 93.071 52.0509 90.344 51.5045C87.2214 50.8788 82.8417 51.4549 79.989 52.8667L78.256 53.7244L77.9539 49.9596C77.7876 47.889 77.6504 45.023 77.6488 43.5909L77.6464 40.9869L76.0121 41.4247C70.6318 42.8658 63.6023 47.1804 59.2966 51.6844C55.9175 55.2192 52.8896 60.1288 51.3566 64.559C49.7128 69.3093 49.9095 69.7981 51.7867 65.6273C55.2841 57.8566 61.3577 51.6695 69.2477 47.8399C74.9127 45.0903 77.2122 44.4791 76.9276 45.7988C76.8262 46.2692 76.3978 48.411 75.9756 50.5582C75.4459 53.2521 74.4733 55.9017 72.838 59.1062C70.7915 63.1163 70.4571 64.1592 70.3878 66.747L70.3076 69.7439L65.573 70.0576C59.6824 70.4478 50.5481 71.5657 48.1252 72.1929C47.1224 72.4525 46.193 72.5591 46.0598 72.4299C45.588 71.9723 47.3846 65.4367 48.9157 62.0406C53.7226 51.3784 62.9821 42.95 74.1306 39.0889C76.6032 38.2325 77.0892 37.8712 77.5955 36.513C78.5895 33.8466 80.0963 33.4207 88.5361 33.4207C96.987 33.4207 98.5073 33.8495 99.4044 36.4864C99.8773 37.8764 100.313 38.1803 103.392 39.2698C116.829 44.0239 127.475 55.7416 130.503 69.1114C130.939 71.0377 131.18 72.7269 131.037 72.8651C130.895 73.0033 128.544 72.7945 125.813 72.4011C120.186 71.5907 112.487 71.429 113.63 72.1452C114.021 72.3901 115.218 72.5936 116.29 72.5975C121.856 72.6175 131.803 75.1689 134.109 77.1681C135.573 78.4368 135.613 78.5754 135.801 83.1142C135.906 85.6701 136.184 87.7613 136.418 87.7613C137.424 87.7613 138.72 90.8094 138.722 93.179C138.723 95.1285 138.5 95.8277 137.599 96.7025C135.527 98.7117 127.461 100.545 116.234 101.559C110.749 102.054 76.1035 102.52 70.3076 102.177H70.3073ZM57.7604 94.8815C69.794 93.6209 87.4234 93.1448 101.194 93.7086C112.895 94.1876 119.587 94.6625 124.993 95.3974C128.03 95.8104 127.018 95.1243 123.48 94.3719C104.862 90.4128 65.6174 90.688 51.9272 94.8735C49.3033 95.6757 50.168 95.6769 57.7604 94.8813V94.8815ZM133.287 86.3976C132.724 85.5139 125.386 83.6399 120.391 83.1042C116.713 82.7098 114.757 82.6932 113.393 83.0448L111.499 83.5327L113.543 83.5802C117.121 83.6633 131.156 85.9272 133.425 86.7873C133.505 86.8178 133.443 86.6424 133.287 86.3976V86.3976ZM97.911 84.276C99.2635 83.6222 101.124 82.2327 102.046 81.1881C103.886 79.1026 105.256 75.3028 105.013 72.9585C104.866 71.5485 104.806 71.6166 104.031 74.0667C102.532 78.8034 97.8736 83.3265 93.0789 84.6997L90.6664 85.3907L93.0591 85.4278C94.7422 85.4539 96.1812 85.1123 97.911 84.2761V84.276ZM91.522 80.8449C99.8883 78.7959 103.268 68.3984 97.6415 62.0213C95.4987 59.5929 92.7754 58.2957 89.2427 58.0206C82.4054 57.4882 76.6692 62.6799 76.6359 69.4308C76.5973 77.2586 83.7554 82.7471 91.522 80.8449ZM86.0984 78.8793C84.4866 78.2982 81.3846 76.2789 82.1036 76.2789C82.2819 76.2789 83.003 76.5613 83.7062 76.9064C88.3163 79.1693 93.8185 77.4234 96.1702 72.9516C97.2843 70.8332 97.4919 67.3594 96.601 65.7445C96.2894 65.1798 96.1545 64.6013 96.3012 64.4591C96.8212 63.9546 98.4574 68.2692 98.4321 70.0783C98.3448 76.3395 91.8694 80.9602 86.0984 78.8793ZM79.5485 68.3377C79.5263 65.0304 83.0375 61.4702 86.8786 60.9052L88.7725 60.6266L86.6419 61.7771C83.4152 63.5194 82.5428 64.3394 80.9856 67.0929C79.7233 69.3251 79.556 69.4699 79.5485 68.3377ZM121.139 56.4142C116.871 50.499 109.71 45.1371 102.29 42.2997L99.899 41.3856V42.4482C99.899 43.3582 100.47 43.7213 103.877 44.9766C109.178 46.93 114.456 50.3467 118.554 54.4775C120.403 56.3406 121.983 57.8744 122.066 57.886C122.149 57.8975 121.732 57.2352 121.139 56.4142ZM83.3702 38.1351C84.2582 37.8824 87.7105 37.545 91.0419 37.3852C96.2185 37.137 97.078 36.9888 96.9545 36.3664C96.7583 35.3785 94.8882 35.0586 89.0092 35.0073C83.6561 34.9606 80.584 35.4335 79.9513 36.4015C79.733 36.7356 79.5511 37.82 79.5471 38.8113L79.5399 40.6137L80.6477 39.6041C81.257 39.0488 82.4821 38.3877 83.3701 38.1351H83.3702ZM8.05518e-06 73.6981C-0.00350913 69.217 1.14494 63.1994 3.10162 57.4476C5.24896 51.1354 10.6089 40.7553 14.2266 35.9029C16.6938 32.5936 17.1291 31.7091 17.2684 29.7214C17.3725 28.2373 17.1905 27.0685 16.7632 26.4767C16.3958 25.9679 16.0953 25.2729 16.0953 24.9322C16.0953 24.5915 17.9444 22.4673 20.2044 20.2118C23.3747 17.0477 24.6054 16.1108 25.5913 16.1108C26.2941 16.1108 27.1122 16.395 27.4094 16.7424C27.7859 17.1824 28.6289 17.3049 30.1898 17.1462C31.972 16.9651 33.4945 16.2309 37.638 13.5547C49.5991 5.8294 62.9942 1.07585 75.0419 0.281103L79.3031 0L72.7699 3.19654C69.1767 4.95464 63.8502 7.93638 60.9332 9.82263C55.5048 13.333 46.3717 20.6489 43.6136 23.6962C42.11 25.3574 42.0797 25.4748 42.3876 28.4484L42.7032 31.4973L49.779 38.4122L56.8548 45.3272L55.8667 46.1947C54.8828 47.0585 54.8485 47.0331 47.8798 40.2842C42.2508 34.8328 40.776 33.629 40.3442 34.1338C39.9168 34.6332 41.2506 36.1591 46.8802 41.6111L53.9531 48.4609L52.8405 49.6243C51.626 50.8944 48.5116 55.2441 48.1492 56.1766C48.0159 56.5194 44.6857 53.6429 40.0491 49.1803C34.7429 44.0732 31.892 41.645 31.3068 41.7341C30.8291 41.8069 29.5687 41.6769 28.5059 41.4452C25.9198 40.8816 24.8153 41.5751 19.9975 46.7877C12.9384 54.4251 8.05973 61.3942 3.21052 70.7673L0.00263331 76.9678L0.000289812 73.6981H8.05518e-06ZM7.39993 54.8649C9.73515 50.45 15.6992 41.4114 18.3467 38.2751L19.9917 36.3263L21.7129 37.6239C24.8057 39.9557 24.9037 39.7125 22.0276 36.8425C19.347 34.1677 19.1593 34.0634 18.3979 34.8264C15.4949 37.7357 8.28664 50.1438 5.84949 56.4269C4.32943 60.3457 4.6965 59.9758 7.39993 54.8649ZM36.0517 35.5426C39.594 32.1563 41.189 30.3075 41.189 29.5877C41.189 28.4707 39.915 26.8825 35.0757 21.9668C30.8073 17.631 30.5979 17.6633 24.4067 23.6114C19.7787 28.0575 18.4047 30.062 19.166 31.2569C19.3634 31.5668 19.8666 31.2703 20.4858 30.4793C22.645 27.7209 29.0597 22.0817 30.0383 22.0817C30.6308 22.0817 32.0174 23.0692 33.4238 24.493C37.6357 28.7569 38.8107 30.2965 38.506 31.1525C38.3486 31.5947 36.2821 33.8684 33.9138 36.2051C31.5455 38.5418 29.9017 40.4536 30.261 40.4536C30.6203 40.4536 33.2261 38.2436 36.0517 35.5426ZM22.7235 22.3857C25.2549 20.0615 26.0058 19.1109 25.6121 18.729C25.2184 18.3471 24.22 19.0409 21.7714 21.398C19.9516 23.1499 18.4626 24.8643 18.4626 25.2079C18.4626 26.1574 19.0118 25.7936 22.7235 22.3857ZM39.7392 18.701C44.8437 14.8191 52.8623 10.0007 59.4175 6.87623C63.0632 5.13853 65.7967 3.71519 65.492 3.71326C64.3153 3.70549 56.3388 6.66743 51.3686 8.95715C46.1782 11.3483 38.9135 15.5182 36.2202 17.6522C34.8173 18.7637 34.8118 18.7858 35.7017 19.7397C36.1964 20.2699 36.7146 20.7038 36.8534 20.7038C36.9921 20.7038 38.2907 19.8025 39.7392 18.701ZM173.832 70.7391C172.179 67.4655 169.168 62.3606 167.141 59.395C163.391 53.9092 155.812 44.9424 152.957 42.6141C151.489 41.4165 151.158 41.3437 148.063 41.536L144.744 41.7421L137.07 49.1768L129.395 56.6115L127.372 53.6996C126.259 52.0981 124.847 50.2642 124.234 49.6243L123.118 48.4609L130.191 41.6111C135.821 36.1591 137.155 34.6332 136.727 34.1338C136.296 33.6291 134.817 34.8361 129.175 40.3006C122.165 47.0897 122.158 47.0942 121.214 46.1784C120.27 45.2626 120.275 45.2567 127.305 38.4557L134.339 31.6496L134.656 28.65C135.044 24.9817 134.912 24.7586 129.64 20.119C121.311 12.7899 113.983 7.91171 104.16 3.15611C97.0672 -0.277703 97.126 -0.439808 105.12 0.514172C116.373 1.85725 129.439 6.91725 140.577 14.2456C143.736 16.3244 145.147 16.9714 146.912 17.1504C148.481 17.3094 149.386 17.1842 149.838 16.7457C150.198 16.3965 150.912 16.1108 151.426 16.1108C152.49 16.1108 160.976 23.939 160.976 24.9201C160.976 25.2675 160.676 25.9679 160.308 26.4767C159.881 27.0685 159.699 28.2373 159.803 29.7214C159.942 31.7038 160.382 32.6025 162.827 35.9029C170.966 46.8857 177.428 64.1518 176.978 73.7115L176.837 76.6911L173.832 70.7391ZM171.16 56.1948C169.635 52.2257 165.096 43.9791 161.81 39.2092C160.034 36.6301 158.411 34.4181 158.203 34.2934C157.995 34.1688 156.57 35.2972 155.036 36.8009C151.885 39.8892 151.824 40.2794 154.855 37.9525C156.376 36.7855 157.075 36.4972 157.518 36.8543C159.579 38.5132 168.132 51.4577 170.714 56.8251C171.931 59.356 172.219 58.9497 171.16 56.1948ZM147.246 40.2818C147.246 40.1874 145.348 38.3086 143.029 36.1069C140.709 33.9051 138.706 31.7114 138.576 31.2318C138.297 30.195 139.31 28.8084 143.165 24.9523C146.053 22.0635 147.276 21.5597 148.666 22.6867C149.057 23.0034 151.232 25.1317 153.5 27.4162C157.448 31.3934 158.135 31.7249 158.135 29.6505C158.135 29.3076 155.776 26.7409 152.893 23.9468C146.189 17.4506 146.322 17.4625 141.076 22.8854C136.317 27.8041 135.703 28.6747 136.049 30.0117C136.513 31.806 147.246 41.6503 147.246 40.2818ZM158.609 25.1696C158.609 24.8471 157.12 23.1499 155.3 21.398C152.79 18.9813 151.859 18.3414 151.442 18.7458C151.025 19.1501 151.738 20.0554 154.396 22.4981C157.984 25.7961 158.609 26.1922 158.609 25.1696ZM141.479 19.6429L142.507 18.582L137.974 15.6742C131.889 11.7702 124.009 7.8833 117.538 5.59368C111.143 3.33073 109.141 3.12337 114.143 5.24193C121.263 8.25773 132.066 14.5595 137.776 19.0276C138.948 19.9446 140.03 20.6969 140.18 20.6993C140.329 20.7015 140.914 20.2264 141.479 19.6429Z" fill="black"/>
</svg>
